<svg width="20" height="20" viewBox="0 0 10 10" fill="none" xmlns="http://www.w3.org/2000/svg">
<path d="M9.61859 7.33401C9.61859 7.4841 9.61858 7.63418 9.4685 7.70922L8.2678 8.98496C8.19276 9.06 8.11773 9.13505 8.04268 9.13505C7.96764 9.21009 7.8926 9.21009 7.74252 9.21009C7.74252 9.21009 7.74251 9.21009 7.66747 9.21009C7.66747 9.21009 7.59242 9.21009 7.51737 9.21009C7.36729 9.21009 7.21721 9.21009 6.91704 9.13505C6.61686 9.06 6.3167 8.98496 5.94148 8.83487C5.56627 8.68479 5.116 8.45966 4.66574 8.08444C4.21548 7.78427 3.69018 7.33401 3.08983 6.73366C2.63957 6.2834 2.26436 5.90819 2.03923 5.45793C1.73906 5.08271 1.51393 4.7075 1.36385 4.33228C1.21376 4.03211 1.06368 3.6569 0.988632 3.43177C0.913589 3.13159 0.838537 2.90646 0.838537 2.75638C0.838537 2.53125 0.763489 2.38116 0.763489 2.30612C0.763489 2.15603 0.763489 2.15603 0.763489 2.08099C0.763489 2.00595 0.838537 1.9309 0.838537 1.78081C0.91358 1.70577 0.913589 1.63073 0.988632 1.55569L2.18933 0.279952C2.26437 0.204908 2.33941 0.129868 2.48949 0.129868C2.56454 0.129868 2.63957 0.129866 2.71462 0.20491C2.78966 0.279953 2.86471 0.27995 2.86471 0.354994L3.84026 2.30612C3.91531 2.38116 3.91531 2.53124 3.91531 2.60629C3.91531 2.75637 3.84026 2.83142 3.76521 2.90646L3.31497 3.35672C3.31497 3.35672 3.31497 3.35672 3.31497 3.43177V3.50681C3.31497 3.6569 3.39 3.80698 3.46505 3.95707C3.54009 4.10715 3.69018 4.25724 3.84026 4.48237C3.99035 4.7075 4.21547 4.93263 4.51565 5.2328C4.81582 5.53297 5.04095 5.7581 5.26608 5.90819C5.49121 6.05827 5.6413 6.20836 5.79139 6.2834C5.94147 6.35845 6.01651 6.43349 6.09156 6.43349H6.24165C6.24165 6.43349 6.24166 6.43349 6.3167 6.43349H6.39173L6.91704 5.90819C6.99208 5.83315 7.14217 5.7581 7.29225 5.7581C7.36729 5.7581 7.51737 5.7581 7.51737 5.83315L9.31843 6.88375C9.54356 7.10888 9.61859 7.18392 9.61859 7.33401Z" fill="#009FE3"/>
</svg>
